<?xml version="1.0" encoding="utf-8"?>
<!-- Generator: Adobe Illustrator 27.5.0, SVG Export Plug-In . SVG Version: 6.00 Build 0)  -->
<svg version="1.1" xmlns="http://www.w3.org/2000/svg" xmlns:xlink="http://www.w3.org/1999/xlink" x="0px" y="0px"
	 viewBox="0 0 500 500" style="enable-background:new 0 0 500 500;" xml:space="preserve">
<g id="BACKGROUND">
	<g>
		<g>
			<rect style="fill:white;" width="500" height="500"/>
		</g>
	</g>
</g>
<g id="OBJECTS">
	<g>
		<path style="fill:#262626;" d="M377.941,210.857c3.814,12.523,5.792,25.681,5.792,39.143c0,13.233-1.914,26.171-5.602,38.503
			l10.398,15.736c6.585-16.805,10.204-35.099,10.204-54.239c0-19.151-3.622-37.456-10.215-54.269l-9.802,14.459
			C378.517,210.484,378.246,210.707,377.941,210.857z"/>
		<path style="fill:#262626;" d="M116.267,250c0-13.607,2.024-26.902,5.92-39.547c-0.128-0.105-0.246-0.225-0.347-0.363
			l-10.412-14.217c-6.557,16.775-10.161,35.029-10.161,54.127c0,19.061,3.591,37.282,10.124,54.03l10.591-15.134
			C118.217,276.447,116.267,263.373,116.267,250z"/>
		<path style="fill:#262626;" d="M383.227,301.604c-2.806-4.457-5.859-8.985-9.127-13.562c-8.869-12.42-19.381-25.217-31.22-38.042
			c12.414-13.449,23.374-26.866,32.505-39.851c2.786-3.962,5.407-7.884,7.842-11.753c1.96-3.113,3.78-6.16,5.461-9.138
			c16.119-28.544,19.424-50.68,9.2-62.907c-10.564-12.636-34.103-12.925-66.675-0.963c-23.35-15.249-51.243-24.121-81.213-24.121
			c-29.969,0-57.862,8.872-81.212,24.121c-32.569-11.962-56.109-11.673-66.676,0.963c-10.21,12.211-6.926,34.304,9.137,62.793
			c1.7,3.014,3.539,6.099,5.524,9.252c2.484,3.947,5.159,7.948,8.007,11.99c2.61,3.703,5.373,7.442,8.27,11.206
			c-1.379,1.808-2.207,4.059-2.207,6.509c0,5.941,4.816,10.758,10.758,10.758c1.666,0,3.237-0.39,4.645-1.065
			c3.484,4.059,7.112,8.131,10.875,12.207c-11.913,12.906-22.483,25.781-31.386,38.274c-3.206,4.498-6.203,8.948-8.961,13.33
			c-2.078,3.302-3.993,6.525-5.758,9.674c-15.856,28.283-19.062,50.22-8.903,62.371c5.418,6.48,14.244,9.713,25.955,9.713
			c11.125,0,24.853-2.921,40.722-8.749c23.35,15.249,51.243,24.12,81.212,24.12c29.969,0,57.862-8.872,81.212-24.12
			c15.87,5.829,29.596,8.749,40.721,8.749c11.708,0,20.537-3.233,25.955-9.713c10.269-12.282,6.885-34.563-9.42-63.291
			C386.847,307.502,385.102,304.584,383.227,301.604z M371.943,121.652c10.121,0,17.695,2.627,22.109,7.906
			c8.382,10.025,5.325,29.564-8.234,54.548c-2.04,3.758-4.311,7.636-6.823,11.626c-1.708,2.713-3.512,5.453-5.397,8.215
			c-9.383,13.746-20.915,28.042-34.137,42.389c-14.468-15.353-30.783-30.698-48.41-45.436c-3.406-2.848-6.826-5.64-10.255-8.381
			c-0.091-0.216-0.184-0.44-0.286-0.678l-2.62-5.722c-2.258-5.044-4.664-10.027-6.738-15.146c-1.016-2.506-2.011-5.021-3.019-7.531
			c17.68-11.329,34.977-20.767,51.182-27.862c9.071,5.518,17.548,12.156,25.247,19.856c12.467,12.467,22.163,26.964,28.793,42.742
			l9.131-14.064c0.155-0.239,0.364-0.427,0.595-0.577c-10.921-21.825-27.045-40.593-46.756-54.666
			C350.185,124.068,362.236,121.652,371.943,121.652z M319.316,364.419c-5.139-2.25-10.388-4.738-15.724-7.444h26.69
			C326.738,359.647,323.079,362.13,319.316,364.419z M250,383.733c-10.485,0-20.784-1.208-30.744-3.54
			c-11.07-5.572-18.322-12.962-22.302-17.896c17.032-8.52,34.954-19.28,53.046-31.831c22.004,15.264,43.757,27.884,63.961,37.04
			C294.564,378.099,272.716,383.733,250,383.733z M274.083,279.877c-0.232,0.132-0.508,0.155-0.774,0.175
			c-4.083,0.3-8.159,0.109-12.242,0.645c-4.122,0.541-8.18,1.491-12.164,2.67c-3.225,0.954-6.447,1.903-9.479,3.389
			c-0.624,0.306-1.251,0.61-1.851,0.96c-1.946,1.137-2.443,2.134-2.104,4.2c0.751,1.927,3.01,2.096,3.01,2.096
			c4.022-0.656,7.816-0.503,11.784,0.35c3.517,0.756,6.775,2.972,9.573,5.207c2.504,1.999,4.736,4.313,6.96,6.619
			c1.085,1.125,2.17,2.252,3.243,3.39c-6.675,5.158-13.367,10.092-20.04,14.787c-11.339-7.978-22.734-16.652-34.005-25.919
			c13.736-35.395,29.405-76.081,33.847-88.86c0.052,0.003,0.105,0.006,0.158,0.009c0.053-0.003,0.105-0.006,0.158-0.009
			c2.037,5.859,4.073,11.718,6.11,17.577c3.089,8.886,6.178,17.771,9.267,26.657c1.547,4.45,3.094,8.901,4.641,13.351
			c0.774,2.228,1.549,4.456,2.323,6.684c0.388,1.115,0.775,2.23,1.162,3.344C273.878,277.82,274.855,279.44,274.083,279.877z
			 M204.379,225.38c-0.133,0.295-0.294,0.547-0.471,0.781l-0.003,0.169l-4.463,9.938c-4.525,10.011-9.017,19.947-13.585,30.053
			l-1.78,3.904c-7.044-6.708-13.765-13.467-20.125-20.225c14.382-15.282,30.63-30.572,48.203-45.264
			c0.821-0.687,1.644-1.366,2.467-2.046C211.203,210.252,207.781,217.812,204.379,225.38z M214.092,303.348
			c10.457,8.549,21.017,16.599,31.542,24.056c-17.652,12.154-35.108,22.572-51.68,30.807c-0.51-0.779-0.769-1.236-0.769-1.236
			S202.744,332.565,214.092,303.348z M298.04,353.91c-0.007,0.063-0.001,0.122-0.004,0.184c-14.147-7.495-28.839-16.477-43.67-26.69
			c6.348-4.498,12.709-9.213,19.053-14.121c1.821,2.074,3.561,4.213,5.136,6.479c4.978,7.166,10.175,14.322,14.449,21.96
			c1.737,3.103,3.413,6.24,4.649,9.588C297.964,352.151,298.14,352.981,298.04,353.91z M315.923,270.225l-1.78-3.904
			c-4.568-10.106-9.059-20.042-13.585-30.053l-4.464-9.938l-0.003-0.169c-0.177-0.234-0.339-0.486-0.471-0.781
			c-3.402-7.569-6.824-15.129-10.242-22.69c0.823,0.68,1.646,1.359,2.467,2.046c17.572,14.692,33.82,29.982,48.203,45.264
			C329.688,256.758,322.967,263.517,315.923,270.225z M313.961,132.494c-15.212,6.894-31.303,15.756-47.718,26.228
			c-4.106-10.265-8.186-20.541-12.282-30.81c-1.088-2.727-2.207-5.442-3.332-8.154c-0.122-0.292-0.34-0.683-0.59-0.752
			c-0.014-0.004-0.024-0.002-0.038-0.005c-0.013,0.003-0.024,0.001-0.038,0.005c-0.25,0.069-0.469,0.46-0.591,0.752
			c-1.125,2.712-2.244,5.427-3.332,8.154c-4.096,10.269-8.176,20.544-12.282,30.81c-16.415-10.472-32.507-19.334-47.719-26.228
			c19.396-10.593,41.245-16.227,63.961-16.227S294.565,121.901,313.961,132.494z M150.127,234.643
			c1.394-1.814,2.232-4.078,2.232-6.543c0-5.941-4.816-10.758-10.758-10.758c-1.68,0-3.264,0.396-4.681,1.083
			c-3.726-4.846-7.218-9.646-10.453-14.382c-1.909-2.794-3.735-5.567-5.463-8.312c-2.531-4.02-4.816-7.926-6.867-11.71
			c-13.521-24.943-16.562-44.45-8.189-54.464c8.647-10.343,29.414-10.496,57.723-0.683c-19.764,14.111-35.92,32.942-46.842,54.843
			c0.19,0.14,0.365,0.303,0.497,0.507l9.215,14.194c6.632-15.872,16.365-30.452,28.896-42.982
			c7.699-7.699,16.176-14.338,25.247-19.856c16.205,7.094,33.501,16.533,51.182,27.862c-1.008,2.509-2.003,5.025-3.019,7.531
			c-2.074,5.119-4.48,10.102-6.738,15.146l-2.62,5.722c-0.102,0.239-0.195,0.462-0.286,0.678c-3.428,2.741-6.849,5.533-10.255,8.381
			c-17.627,14.738-33.942,30.083-48.41,45.436C156.939,242.431,153.466,238.53,150.127,234.643z M105.947,370.442
			c-8.326-9.958-5.363-29.304,7.966-54.047c2.108-3.914,4.467-7.958,7.091-12.127c2.111-3.353,4.368-6.749,6.748-10.175
			c9.131-13.143,20.191-26.762,32.785-40.428c6.74,7.152,13.881,14.302,21.37,21.39c-9.756,21.585-19.517,43.168-29.246,64.765
			c-0.157,0.349-0.342,0.609-0.553,0.827l-0.131,0.316c-10.916-11.742-19.503-25.115-25.514-39.56l-9.41,14.704
			c-0.056,0.087-0.129,0.159-0.197,0.235c10.921,21.875,27.067,40.685,46.812,54.783
			C135.363,380.936,114.594,380.784,105.947,370.442z M394.052,370.442c-8.648,10.342-29.415,10.494-57.722,0.682
			c19.764-14.112,35.922-32.944,46.844-54.846c-0.37-0.152-0.698-0.401-0.923-0.747l-8.897-13.704
			c-6.002,14.282-14.524,27.508-25.332,39.134l-0.131-0.316c-0.211-0.218-0.396-0.478-0.553-0.827
			c-9.729-21.597-19.491-43.18-29.246-64.765c7.489-7.088,14.63-14.238,21.37-21.39c12.934,14.035,24.257,28.022,33.527,41.493
			c2.109,3.066,4.114,6.105,6.006,9.111c2.424,3.852,4.629,7.6,6.613,11.236C399.35,340.675,402.478,360.364,394.052,370.442z"/>
	</g>
</g>
</svg>
